HIERARCHY
ROOT Hips
{
	OFFSET 0.00000 0.00000 0.00000
	CHANNELS 6 Xposition Yposition Zposition Zrotation Yrotation Xrotation 
	JOINT LHipJoint
	{
		OFFSET 0 0 0
		CHANNELS 3 Zrotation Yrotation Xrotation
		JOINT LeftUpLeg
		{
			OFFSET 1.29432 -1.88279 0.59910
			CHANNELS 3 Zrotation Yrotation Xrotation
			JOINT LeftLeg
			{
				OFFSET 2.63039 -7.22694 0.00000
				CHANNELS 3 Zrotation Yrotation Xrotation
				JOINT LeftFoot
				{
					OFFSET 2.70674 -7.43672 0.00000
					CHANNELS 3 Zrotation Yrotation Xrotation
					JOINT LeftToeBase
					{
						OFFSET 0.15066 -0.41394 2.09027
						CHANNELS 3 Zrotation Yrotation Xrotation
						End Site
						{
							OFFSET 0.00000 -0.00000 1.07518
						}
					}
				}
			}
		}
	}
	JOINT RHipJoint
	{
		OFFSET 0 0 0
		CHANNELS 3 Zrotation Yrotation Xrotation
		JOINT RightUpLeg
		{
			OFFSET -1.37068 -1.88279 0.59910
			CHANNELS 3 Zrotation Yrotation Xrotation
			JOINT RightLeg
			{
				OFFSET -2.57023 -7.06166 0.00000
				CHANNELS 3 Zrotation Yrotation Xrotation
				JOINT RightFoot
				{
					OFFSET -2.76461 -7.59570 0.00000
					CHANNELS 3 Zrotation Yrotation Xrotation
					JOINT RightToeBase
					{
						OFFSET -0.24175 -0.64785 2.19719
						CHANNELS 3 Zrotation Yrotation Xrotation
						End Site
						{
							OFFSET -0.00000 -0.00000 1.14803
						}
					}
				}
			}
		}
	}
	JOINT LowerBack
	{
		OFFSET 0 0 0
		CHANNELS 3 Zrotation Yrotation Xrotation
		JOINT Spine
		{
			OFFSET -0.03138 2.03983 -0.23106
			CHANNELS 3 Zrotation Yrotation Xrotation
			JOINT Spine1
			{
				OFFSET -0.00325 2.06238 -0.06878
				CHANNELS 3 Zrotation Yrotation Xrotation
				JOINT Neck
				{
					OFFSET 0 0 0
					CHANNELS 3 Zrotation Yrotation Xrotation
					JOINT Neck1
					{
						OFFSET -0.00002 1.75318 0.18090
						CHANNELS 3 Zrotation Yrotation Xrotation
						JOINT Head
						{
							OFFSET 0.08806 1.75856 -0.25387
							CHANNELS 3 Zrotation Yrotation Xrotation
							End Site
							{
								OFFSET 0.02554 1.78597 -0.10684
							}
						}
					}
				}
				JOINT LeftShoulder
				{
					OFFSET 0 0 0
					CHANNELS 3 Zrotation Yrotation Xrotation
					JOINT LeftArm
					{
						OFFSET 3.09657 1.33597 -0.04414
						CHANNELS 3 Zrotation Yrotation Xrotation
						JOINT LeftForeArm
						{
							OFFSET 5.34298 -0.00000 -0.00000
							CHANNELS 3 Zrotation Yrotation Xrotation
							JOINT LeftHand
							{
								OFFSET 3.67262 -0.00000 -0.00000
								CHANNELS 3 Zrotation Yrotation Xrotation
								JOINT LeftFingerBase
								{
									OFFSET 0 0 0
									CHANNELS 3 Zrotation Yrotation Xrotation
									JOINT LeftHandIndex1
									{
										OFFSET 0.59930 -0.00000 -0.00000
										CHANNELS 3 Zrotation Yrotation Xrotation
										End Site
										{
											OFFSET 0.48317 -0.00000 -0.00000
										}
									}
								}
								JOINT LThumb
								{
									OFFSET 0 0 0
									CHANNELS 3 Zrotation Yrotation Xrotation
									End Site
									{
										OFFSET 0.49055 -0.00000 0.49055
									}
								}
							}
						}
					}
				}
				JOINT RightShoulder
				{
					OFFSET 0 0 0
					CHANNELS 3 Zrotation Yrotation Xrotation
					JOINT RightArm
					{
						OFFSET -3.16460 1.32273 -0.23382
						CHANNELS 3 Zrotation Yrotation Xrotation
						JOINT RightForeArm
						{
							OFFSET -5.54967 -0.01834 0.03348
							CHANNELS 3 Zrotation Yrotation Xrotation
							JOINT RightHand
							{
								OFFSET -3.69401 -0.00000 0.00000
								CHANNELS 3 Zrotation Yrotation Xrotation
								JOINT RightFingerBase
								{
									OFFSET 0 0 0
									CHANNELS 3 Zrotation Yrotation Xrotation
									JOINT RightHandIndex1
									{
										OFFSET -0.63811 -0.00000 0.00000
										CHANNELS 3 Zrotation Yrotation Xrotation
										End Site
										{
											OFFSET -0.51446 -0.00000 0.00000
										}
									}
								}
								JOINT RThumb
								{
									OFFSET 0 0 0
									CHANNELS 3 Zrotation Yrotation Xrotation
									End Site
									{
										OFFSET -0.52232 -0.00000 0.52232
									}
								}
							}
						}
					}
				}
			}
		}
	}
}
MOTION
Frames: 6
Frame Time: .0083333
11.2822 18.9366 9.8709 148.2360 -84.7673 -144.0580 0.0000 0.0000 0.0000 -17.9865 -8.4303 2.4562 0.1349 2.3674 6.5220 0.1064 9.0607 -14.6736 0.6989 5.3437 14.8914 0.0000 0.0000 0.0000 13.8294 5.6147 1.0040 -0.1646 -2.6139 7.2057 -0.0902 -4.5016 -9.0449 -0.7140 5.4001 -15.0533 -4.9195 -2.7352 -5.6322 -1.6197 -3.2756 0.5770 0.7787 -1.7253 3.9378 -15.3521 -17.7915 7.1274 20.4025 -28.3463 10.1517 6.5725 -14.3147 7.1238 -0.0000 -0.0000 0.0000 -62.1055 -18.8311 60.9785 139.4651 -48.3836 -101.1619 -0.0000 -0.0000 22.1908 -1.2806 21.5976 -0.4715 -7.1250 0.0000 -0.0000 -29.1172 49.1846 -3.2560 -0.0000 -0.0000 0.0000 78.8943 -2.1923 67.5611 -116.6954 57.1281 -82.8960 0.0000 -0.0000 -4.6001 -37.3128 28.1457 -19.7744 7.1250 -0.0000 -0.0000 -3.9285 3.8753 -4.1946
11.2804 18.9363 9.8779 147.4660 -84.8166 -143.3280 0.0000 0.0000 0.0000 -18.0546 -8.4801 2.5653 0.1314 2.3366 6.4368 0.0990 9.0995 -14.6091 0.6884 5.3045 14.7792 0.0000 0.0000 0.0000 13.7731 5.5513 0.9860 -0.1689 -2.6474 7.2986 -0.1006 -4.4585 -9.2457 -0.7349 5.4768 -15.2736 -4.8302 -2.6426 -5.6026 -1.7766 -3.1569 0.5890 0.5799 -1.6638 3.9134 -14.9981 -17.8631 7.2150 20.4873 -28.4592 10.0929 6.5520 -14.3705 7.0747 0.0000 0.0000 0.0000 -61.8169 -19.0739 61.3934 139.3278 -48.4632 -101.0591 -0.0000 -0.0000 23.5161 -0.3508 21.3920 -0.1280 -7.1250 0.0000 -0.0000 -28.1760 49.1410 -3.1018 0.0000 0.0000 0.0000 79.2074 -2.3231 67.1931 -116.4966 57.1734 -82.7290 0.0000 -0.0000 -4.0146 -37.5705 28.3957 -20.0945 7.1250 -0.0000 -0.0000 -4.0177 4.2411 -4.3141
11.2820 18.9362 9.8846 146.2960 -84.8090 -142.1560 0.0000 0.0000 0.0000 -18.1824 -8.5230 2.6208 0.1259 2.2873 6.3003 0.0741 9.2585 -14.4246 0.6431 5.1303 14.2806 0.0000 0.0000 0.0000 13.6546 5.5314 0.9019 -0.1759 -2.7015 7.4487 -0.1037 -4.4490 -9.3078 -0.7211 5.4263 -15.1287 -4.9826 -2.8222 -5.5412 -1.6339 -3.3947 0.5470 0.7932 -1.7842 3.8645 -15.2911 -17.7171 7.0561 20.3322 -28.2504 10.2812 6.5529 -14.2615 7.1383 0.0000 -0.0000 0.0000 -61.9337 -18.8324 61.0037 139.2447 -48.5111 -100.9969 -0.0000 -0.0000 25.2006 0.6059 21.4360 0.2214 -7.1250 0.0000 -0.0000 -27.3436 49.3211 -3.1252 0.0000 -0.0000 0.0000 78.8319 -2.2576 67.6650 -116.3058 57.2166 -82.5686 0.0000 -0.0000 -3.7183 -38.0419 28.3998 -20.4130 7.1250 -0.0000 -0.0000 -4.2833 4.4054 -4.6122
11.2806 18.9354 9.8843 145.9210 -84.5862 -141.7810 0.0000 0.0000 0.0000 -18.3722 -8.3504 2.6499 0.1204 2.2370 6.1612 0.0537 9.3985 -14.2861 0.5987 4.9532 13.7752 0.0000 0.0000 0.0000 13.4788 5.7157 0.8763 -0.1826 -2.7522 7.5895 -0.1054 -4.4025 -9.2999 -0.6332 5.0913 -14.1692 -5.1992 -2.8723 -5.5344 -1.5735 -3.4499 0.5268 0.9710 -1.8162 3.8597 -15.4219 -17.7085 6.8876 20.1653 -28.2043 10.3852 6.5035 -14.2277 7.1825 -0.0000 -0.0000 0.0000 -62.0696 -18.7499 60.7442 139.1397 -48.5714 -100.9182 -0.0000 -0.0000 27.0519 1.5650 21.9781 0.5858 -7.1250 0.0000 -0.0000 -26.7722 49.9476 -3.4870 -0.0000 -0.0000 0.0000 78.6153 -2.2217 67.9641 -116.1231 57.2575 -82.4150 0.0000 -0.0000 -3.4360 -38.1635 28.2338 -20.3942 7.1250 -0.0000 -0.0000 -4.3904 4.2606 -4.7179
11.2763 18.9363 9.8830 146.1020 -84.5073 -141.9310 0.0000 0.0000 0.0000 -18.4016 -8.2495 2.7176 0.1129 2.1666 5.9663 0.0533 9.3939 -14.2733 0.6416 5.1245 14.2640 0.0000 0.0000 0.0000 13.4558 5.8431 0.7639 -0.1918 -2.8205 7.7793 -0.1061 -4.3038 -9.2168 -0.6135 5.0129 -13.9454 -5.1880 -2.8338 -5.6191 -1.7097 -3.3932 0.4925 0.8265 -1.7871 3.8592 -15.1808 -17.7176 6.9886 20.2536 -28.2672 10.4202 6.5046 -14.2623 7.1686 -0.0000 0.0000 0.0000 -61.8108 -18.7542 60.9179 139.0277 -48.6355 -100.8342 -0.0000 -0.0000 28.8159 1.2599 21.7969 0.4679 -7.1250 0.0000 -0.0000 -26.9496 49.7399 -3.3677 -0.0000 0.0000 0.0000 78.8081 -2.2380 67.9223 -115.9572 57.2944 -82.2754 0.0000 -0.0000 -3.2818 -38.0131 28.2206 -20.2853 7.1250 -0.0000 -0.0000 -4.3083 4.1945 -4.6246
11.2729 18.9379 9.8854 145.7920 -84.5403 -141.5780 0.0000 0.0000 0.0000 -18.4008 -8.2779 2.7690 0.1069 2.1085 5.8056 0.0538 9.3896 -14.2760 0.6743 5.2510 14.6259 0.0000 0.0000 0.0000 13.4538 5.8478 0.6431 -0.1986 -2.8700 7.9171 -0.1081 -4.2539 -9.2136 -0.6764 5.2587 -14.6480 -5.2060 -2.8708 -5.7242 -1.7584 -3.4357 0.4441 0.7782 -1.8081 3.8685 -15.1748 -17.6078 7.1755 20.4487 -28.2163 10.4908 6.5932 -14.2530 7.1814 0.0000 0.0000 0.0000 -61.5324 -18.5920 61.0142 139.0300 -48.6342 -100.8359 -0.0000 -0.0000 30.4566 0.9612 21.3857 0.3505 -7.1250 0.0000 -0.0000 -26.9973 49.3291 -3.0855 0.0000 0.0000 0.0000 78.7939 -2.2169 67.9398 -115.9469 57.2967 -82.2667 0.0000 -0.0000 -3.1322 -37.8232 27.9601 -20.0009 7.1250 -0.0000 -0.0000 -4.2604 3.8377 -4.5483
